inDegrees=yes
name=ik_XSDot_20240320_161737_orientations
DataType=double
version=3
OpenSimVersion=4.5-2024-01-10-34fd6af
endheader
time	pelvis_tilt	pelvis_list	pelvis_rotation	pelvis_tx	pelvis_ty	pelvis_tz	hip_flexion_r	hip_adduction_r	hip_rotation_r	knee_angle_r	knee_angle_r_beta	ankle_angle_r	subtalar_angle_r	mtp_angle_r	hip_flexion_l	hip_adduction_l	hip_rotation_l	knee_angle_l	knee_angle_l_beta	ankle_angle_l	subtalar_angle_l	mtp_angle_l	lumbar_extension	lumbar_bending	lumbar_rotation	arm_flex_r	arm_add_r	arm_rot_r	elbow_flex_r	pro_sup_r	wrist_flex_r	wrist_dev_r	arm_flex_l	arm_add_l	arm_rot_l	elbow_flex_l	pro_sup_l	wrist_flex_l	wrist_dev_l
0.9400000000000006	-2.58435283135156	-5.698313651821659	145.4423136010723	0	0.9399999999999999	0	-1.858277212491048	-3.180115974808668	39.96495870421322	0.05031547480186737	0.0008781706999968272	-5.015762579007752	0	0	-13.46147727854709	-4.119097411433373	-39.98240190021035	0.02263530949148015	0.000395060677834252	-5.015762579007752	0	0	0	0	0	0	-12.82226456159836	0	74.68488645965158	45.28105326450692	0	0	0	-12.82226456159836	0	74.68488645965158	45.28105326450692	0	0
0.9500000000000006	-2.701359653993257	-5.86587311956167	145.6525515379495	0	0.9399999999999999	0	-1.992862461392609	-3.229266346719666	39.96798440507711	0.04953055632457157	0.000864471288208275	-5.015722359755911	0	0	-13.85294159048815	-4.034441454031999	-39.98233696475094	0.02163076232797196	0.0003775280223394643	-5.015722359755911	0	0	0	0	0	0	-12.8228853373755	0	74.68506235668821	45.28061871183779	0	0	0	-12.8228853373755	0	74.68506235668821	45.28061871183779	0	0
0.9600000000000006	-2.814963597402827	-6.053752436863452	145.7748303653299	0	0.9399999999999999	0	-2.076241748866472	-3.304067379216735	39.97199763245051	0.0491852887142429	0.000858445231607547	-5.015683251167988	0	0	-14.20670399348938	-3.879582377249375	-39.98266184111709	0.02062721065482987	0.0003600127414292368	-5.015683251167988	0	0	0	0	0	0	-12.82349048674232	0	74.68523377445727	45.28019569263903	0	0	0	-12.82349048674232	0	74.68523377445727	45.28019569263903	0	0
0.9700000000000006	-2.971342567085844	-6.300929191871229	145.8223997525217	0	0.9399999999999999	0	-2.138075213110198	-3.496189101313118	39.97582660717139	0.04924183543557396	0.0008594321580759817	-5.015602197590711	0	0	-14.57418425349222	-3.652147233978582	-39.98326514900845	0.01957020752569114	0.0003415645566218831	-5.015602197590711	0	0	0	0	0	0	-12.82477827305167	0	74.68559671974559	45.27931095491318	0	0	0	-12.82477827305167	0	74.68559671974559	45.27931095491318	0	0
0.9800000000000006	-3.163208532149987	-6.554156935931688	145.8893439844126	0	0.9399999999999999	0	-2.181140740252649	-3.702978034187998	39.97866628484383	0.04924921248300897	0.0008595609118427983	-5.01552224455526	0	0	-14.96692764760707	-3.361786823651858	-39.98373533657413	0.01858209223504846	0.0003243186914108676	-5.01552224455526	0	0	0	0	0	0	-12.82605185754336	0	74.68595560914052	45.27843703640698	0	0	0	-12.82605185754336	0	74.68595560914052	45.27843703640698	0	0
0.9900000000000007	-3.329528689051644	-6.770261612904079	146.058297049259	0	0.9399999999999999	0	-2.225546689238751	-3.91693975571923	39.98030536992598	0.04873859362942683	0.0008506489316250313	-5.015483412181991	0	0	-15.36622621351125	-3.117790933985992	-39.98394607739098	0.01764742995246218	0.0003080057571855314	-5.015483412181991	0	0	0	0	0	0	-12.82665940923768	0	74.6861274771171	45.27801494629191	0	0	0	-12.82665940923768	0	74.6861274771171	45.27801494629191	0	0
1.000000000000001	-3.482476943090415	-6.978249331071896	146.3315385402228	0	0.9399999999999999	0	-2.277194945032926	-4.128518663819352	39.98119102604102	0.04835453376076918	0.0008439458223921783	-5.015444320282041	0	0	-15.69968997699372	-2.868163024806354	-39.98398637217484	0.01689567326675988	0.0002948851278461462	-5.015444320282041	0	0	0	0	0	0	-12.82727219906237	0	74.68630078606986	45.27758966956961	0	0	0	-12.82727219906237	0	74.68630078606986	45.27758966956961	0	0
1.010000000000001	-3.652358443975172	-7.24248143892789	146.6291824269112	0	0.9399999999999999	0	-2.262664366492295	-4.359148189182367	39.98194251852031	0.04882172467311358	0.0008520998420479843	-5.015406298920707	0	0	-16.01091302899447	-2.564710611738572	-39.98391968562566	0.01625104076675802	0.0002836341682557512	-5.015406298920707	0	0	0	0	0	0	-12.82786955501522	0	74.68646968009041	45.27717563463416	0	0	0	-12.82786955501522	0	74.68646968009041	45.27717563463416	0	0
